<?xml version="1.0" encoding="iso-8859-1"?>
<!-- Generator: Adobe Illustrator 19.0.0, SVG Export Plug-In . SVG Version: 6.00 Build 0)  -->
<svg version="1.1" id="Layer_1" xmlns="http://www.w3.org/2000/svg" xmlns:xlink="http://www.w3.org/1999/xlink" x="0px" y="0px"
	 viewBox="0 0 505 505" style="enable-background:new 0 0 505 505;" xml:space="preserve">
<circle style="fill:#324A5E;" cx="252.5" cy="252.5" r="252.5"/>
<path style="fill:#F1543F;" d="M294.7,182.9h-81.2l-0.3-0.5L118.3,38.6c19.2-12.1,40.2-21.7,62.5-28.3l73,110.6l40.6,61.5
	L294.7,182.9z"/>
<path style="fill:#FFD05B;" d="M295.8,208.7h-86.5c-9.4,0-17-7.6-17-17s7.6-17,17-17h86.5c9.4,0,17,7.6,17,17
	C312.7,201.1,305.1,208.7,295.8,208.7z M209.2,182.6c-5,0-9.1,4.1-9.1,9.1s4.1,9.1,9.1,9.1h86.5c5,0,9.1-4.1,9.1-9.1
	s-4.1-9.1-9.1-9.1H209.2z"/>
<path style="fill:#F9B54C;" d="M256.3,223.8h-7.6c-4.1,0-7.4-3.3-7.4-7.4v-14.9c0-6.2,5-11.2,11.2-11.2l0,0c6.2,0,11.2,5,11.2,11.2
	v14.9C263.7,220.5,260.4,223.8,256.3,223.8z"/>
<circle style="fill:#FFD05B;" cx="252.5" cy="333.1" r="118.3"/>
<circle style="fill:#F9B54C;" cx="252.5" cy="333.1" r="93.4"/>
<circle style="fill:#FFD05B;" cx="252.5" cy="333.1" r="76"/>
<polygon style="fill:#F9B54C;" points="252.5,276.7 269.8,311.7 308.4,317.3 280.4,344.5 287,383 252.5,364.8 218,383 224.6,344.5 
	196.6,317.3 235.2,311.7 "/>
<path style="fill:#FF7058;" d="M388.5,39.8l-94.1,142.6l-0.4,0.5h-81.2l0.4-0.5l40.6-61.5L326.4,11
	C348.5,17.7,369.4,27.5,388.5,39.8z"/>
<g>
</g>
<g>
</g>
<g>
</g>
<g>
</g>
<g>
</g>
<g>
</g>
<g>
</g>
<g>
</g>
<g>
</g>
<g>
</g>
<g>
</g>
<g>
</g>
<g>
</g>
<g>
</g>
<g>
</g>
</svg>
