<?xml version="1.0" encoding="iso-8859-1"?>
<!-- Generator: Adobe Illustrator 19.0.0, SVG Export Plug-In . SVG Version: 6.00 Build 0)  -->
<svg version="1.1" id="Layer_1" xmlns="http://www.w3.org/2000/svg" xmlns:xlink="http://www.w3.org/1999/xlink" x="0px" y="0px"
	 viewBox="0 0 505 505" style="enable-background:new 0 0 505 505;" xml:space="preserve">
<circle style="fill:#324A5E;" cx="252.5" cy="252.5" r="252.5"/>
<path style="fill:#2B3B4E;" d="M55.3,410.2C101.6,468,172.7,505,252.5,505s150.9-37,197.2-94.8H55.3z"/>
<g>
	<path style="fill:#F9B54C;" d="M333.8,106.5c0,0,0.8-0.6,2.3-1.8c1.5-1.1,3.6-2.6,6.5-4.3c2.9-1.7,6.5-3.7,10.8-5.6
		c4.4-1.8,9.6-3.6,15.9-3.8c6.1-0.4,13.7,1.9,18.8,7.7c2.5,2.9,4.2,6.2,5.5,9.7c1.1,3.5,2,7.1,2.4,10.7c0.3,1.8,0.4,3.6,0.5,5.4
		l0.1,2.5c0,0.9,0,2.5,0,3.3c-0.3,4.1-1.1,8.1-2.4,11.9c-2.4,7.6-6.4,14.5-11,20.4c-1.1,1.6-2.3,2.9-3.6,4.3c-1.3,1.3-2.4,2.8-3.8,4
		c-2.7,2.4-5.2,5-8,7c-2.7,2.1-5.4,4.3-8.2,6c-2.8,1.8-5.5,3.7-8.2,5.1c-2.8,1.5-5.4,3.1-8.1,4.4c-2.7,1.3-5.3,2.5-7.9,3.7l-1.8,0.8
		c-0.7,0.3-1,0.5-1.5,0.7c-1,0.5-1.9,1.1-2.8,1.7c-1.7,1.3-3.2,2.8-4.3,4.3c-2.4,3.3-3.3,6.5-3,9.2c0.2,2.7,1.6,5,2.9,6.7
		c1.4,1.7,2.8,3,3.7,3.8c1,0.8,1.5,1.2,1.5,1.2l0.2,0.1c1.4,1.1,1.6,3.3,0.4,4.8s-3.3,1.8-4.7,0.7c0,0-0.6-0.5-1.8-1.3
		c-1.2-0.9-2.9-2.3-4.8-4.5s-4.1-5.5-4.8-10.2c-0.7-4.7,0.9-10.4,4.1-15c1.6-2.4,3.7-4.6,6.1-6.5c1.2-0.9,2.5-1.8,3.8-2.6
		c0.7-0.4,1.5-0.8,2.1-1.1l1.9-0.9c2.4-1.2,4.9-2.5,7.4-3.8c2.6-1.3,5-2.9,7.5-4.4c2.6-1.4,5-3.2,7.5-5c2.6-1.7,4.9-3.7,7.3-5.7
		c2.5-1.9,4.6-4.3,6.9-6.5c1.1-1.1,2.1-2.4,3.1-3.6c1.1-1.2,2.1-2.4,2.9-3.8c3.8-5.1,6.7-10.9,8.3-16.7c0.9-2.9,1.3-5.9,1.4-8.5
		c0-0.8,0-0.9,0-1.7l-0.2-2.5c-0.1-1.5-0.3-3-0.6-4.4c-0.4-2.9-1.2-5.5-2.1-7.9c-1-2.3-2.1-4.2-3.5-5.6c-2.7-2.7-6.1-3.8-10-3.4
		c-3.8,0.2-7.8,1.6-11.1,3.1c-3.4,1.6-6.3,3.3-8.7,4.8c-2.4,1.5-4.1,2.8-5.3,3.7c-1.1,0.9-1.7,1.4-1.7,1.4l-0.3,0.2
		c-3.2,2.6-7.6,2-9.8-1.4c-2.2-3.4-1.3-8.3,2-10.9C333.7,106.6,333.8,106.6,333.8,106.5z"/>
	<path style="fill:#F9B54C;" d="M171.2,106.5c0,0-0.8-0.6-2.3-1.8c-1.5-1.1-3.6-2.6-6.5-4.3c-2.9-1.7-6.5-3.7-10.8-5.6
		c-4.4-1.8-9.6-3.6-15.9-3.8c-6.1-0.4-13.7,1.9-18.8,7.7c-2.5,2.9-4.2,6.2-5.5,9.7c-1.1,3.5-2,7.1-2.4,10.7
		c-0.3,1.8-0.4,3.6-0.5,5.4l-0.1,2.5c0,0.9,0,2.5,0,3.3c0.3,4.1,1.1,8.1,2.4,11.9c2.4,7.6,6.4,14.5,11,20.4c1.1,1.6,2.3,2.9,3.6,4.3
		c1.3,1.3,2.4,2.8,3.7,4c2.7,2.4,5.2,5,8,7c2.7,2.1,5.4,4.3,8.2,6c2.8,1.8,5.5,3.7,8.2,5.1c2.8,1.5,5.4,3.1,8.1,4.4
		c2.7,1.3,5.3,2.5,7.9,3.7l1.8,0.8c0.7,0.3,1,0.5,1.5,0.7c1,0.5,1.9,1.1,2.8,1.7c1.7,1.3,3.2,2.8,4.3,4.3c2.4,3.3,3.3,6.5,3,9.2
		c-0.2,2.7-1.6,5-2.9,6.7c-1.4,1.7-2.8,3-3.7,3.8c-1,0.8-1.5,1.2-1.5,1.2l-0.2,0.1c-1.4,1.1-1.6,3.3-0.4,4.8
		c1.2,1.5,3.3,1.8,4.7,0.7c0,0,0.6-0.5,1.8-1.3c1.2-0.9,2.9-2.3,4.8-4.5c1.9-2.2,4.1-5.5,4.8-10.2s-0.9-10.4-4.1-15
		c-1.6-2.4-3.7-4.6-6.1-6.5c-1.2-0.9-2.5-1.8-3.8-2.6c-0.7-0.4-1.5-0.8-2.1-1.1l-1.9-0.9c-2.4-1.2-4.9-2.5-7.4-3.8
		c-2.6-1.3-5-2.9-7.5-4.4c-2.6-1.4-5-3.2-7.5-5c-2.6-1.7-4.9-3.7-7.3-5.7c-2.5-1.9-4.6-4.3-6.9-6.5c-1.1-1.1-2.1-2.4-3.1-3.6
		c-1.1-1.2-2.1-2.4-2.9-3.8c-3.8-5.1-6.7-10.9-8.3-16.7c-0.9-2.9-1.3-5.9-1.4-8.5c0-0.8,0-0.9,0-1.7l0.2-2.5c0.1-1.5,0.3-3,0.6-4.4
		c0.4-2.9,1.2-5.5,2.1-7.9c1-2.3,2.1-4.2,3.5-5.6c2.7-2.7,6.1-3.8,10-3.4c3.8,0.2,7.8,1.6,11.1,3.1c3.4,1.6,6.3,3.3,8.7,4.8
		s4.1,2.8,5.3,3.7c1.1,0.9,1.7,1.4,1.7,1.4l0.3,0.2c3.2,2.6,7.6,2,9.8-1.4s1.3-8.3-2-10.9C171.3,106.6,171.2,106.6,171.2,106.5z"/>
</g>
<path style="fill:#FFD05B;" d="M237.6,261c3.9,1.2,6.4,4.8,6.1,8.8c-0.1,1.6-0.3,3.5-0.4,5.5c-0.6,6.1-4.5,11.3-10.1,13.9
	c-5.3,2.5-8.7,6-8.7,9.9c0,2.8,1.8,5.5,4.8,7.6c5.4,3.9,7.8,10.7,6.2,17.1c-5.7,23.9-15.1,31.7-30.6,46.7H300
	c-15.5-15-24.9-22.7-30.6-46.7c-1.5-6.4,0.8-13.3,6.2-17.1c3-2.2,4.8-4.8,4.8-7.6c0-3.9-3.3-7.4-8.7-9.9c-5.6-2.6-9.6-7.8-10.1-13.9
	c-0.2-2-0.3-3.8-0.5-5.5c-0.3-4,2.3-7.6,6.1-8.8c40.6-12.7,71.4-75.4,71.4-137.5c0-14.8-1.8-29-5-42.2H171.2
	c-3.2,13.2-5,27.4-5,42.2C166.2,185.5,197,248.3,237.6,261z"/>
<path style="fill:#E6E9EE;" d="M325.2,410.2H179.8v-37.4c0-1.3,1-2.3,2.3-2.3h140.6c1.3,0,2.3,1,2.3,2.3v37.4H325.2z"/>
<g>
</g>
<g>
</g>
<g>
</g>
<g>
</g>
<g>
</g>
<g>
</g>
<g>
</g>
<g>
</g>
<g>
</g>
<g>
</g>
<g>
</g>
<g>
</g>
<g>
</g>
<g>
</g>
<g>
</g>
</svg>
