<?xml version="1.0" encoding="iso-8859-1"?>
<!-- Generator: Adobe Illustrator 19.0.0, SVG Export Plug-In . SVG Version: 6.00 Build 0)  -->
<svg version="1.1" id="Layer_1" xmlns="http://www.w3.org/2000/svg" xmlns:xlink="http://www.w3.org/1999/xlink" x="0px" y="0px"
	 viewBox="0 0 508 508" style="enable-background:new 0 0 508 508;" xml:space="preserve">
<circle style="fill:#84DBFF;" cx="254" cy="254" r="254"/>
<g>
	<path style="fill:#324A5E;" d="M408,166.8c3.6-28.4-17.6-54.4-47.2-55.2c-22-0.8-42.4,14.4-48.4,35.6c-3.2,11.2-2,22.4,2,32
		c-11.6,6-19.6,18.4-19.6,32.8c0,16.8,11.6,31.6,28,36c22,5.6,42.8-9.2,46-30.8c0-1.2,0.4-2.4,0.4-3.6c0-2.8,2-5.6,4.8-6.4
		C391.6,201.6,405.6,186.4,408,166.8z M365.2,193.6l-3.2,0.8c-5.2,1.2-8.8,6-8.4,11.2l0.4,4.4c0.4,2,0,4,0,6c-2,10-10.8,18-20.8,18
		c-14,0.4-24-11.6-22.4-24.8c0.8-7.2,5.2-13.2,11.6-16.4l12-6.4l-5.2-12.8c-2.4-5.6-3.2-11.6-2.4-17.6c2.4-18.4,19.6-31.2,37.6-28.8
		c18.8,2.4,32,20.4,28.8,39.2C390.4,180,379.2,190.8,365.2,193.6z"/>
	<path style="fill:#324A5E;" d="M134,206.8c2.8,0.8,4.8,3.6,4.8,6.4c0,1.2,0,2.4,0.4,3.6c2.8,21.6,24,36.4,46,30.8
		c16.4-4,28-19.2,28-36c0-14.4-8-26.4-19.6-32.8c4-9.6,5.2-20.8,2-32c-6-21.2-26-36.4-48.4-35.6C117.6,112,96.4,138,100,166.4
		C102.4,186.4,116.4,201.6,134,206.8z M115.2,166.4c-3.2-18.8,10-36.4,28.8-39.2c18.4-2.4,35.2,10.4,37.6,28.8c0.8,6,0,12-2.4,17.6
		L174,186l12,6.4c6.4,3.2,10.4,9.2,11.6,16.4c1.6,13.2-8.4,25.2-22.4,24.8c-10.4-0.4-19.2-8-20.8-18c-0.4-2-0.4-4,0-6l0.4-4.4
		c0.4-5.2-3.2-10-8.4-11.2l-3.2-0.8C128.8,190.8,117.6,180,115.2,166.4z"/>
</g>
<path style="fill:#E6E9EE;" d="M256,100.8h-3.6h-86.8v60.8c0,19.6,3.2,39.6,9.6,57.6c9.2,25.2,26.8,48.4,61.2,58v50.4H266v-49.2
	c37.6-8.8,56.4-33.2,66-59.2c6.4-18,9.6-37.6,9.6-57.6v-60.8H256z"/>
<path style="fill:#324A5E;" d="M316.8,323.2H186.4c-2.8,0-5.2,2.4-5.2,5.2v81.2c0,2.8,2.4,5.2,5.2,5.2h130.8c2.8,0,5.2-2.4,5.2-5.2
	v-81.2C322,325.6,320,323.2,316.8,323.2z"/>
<rect x="201.6" y="344" style="fill:#2B3B4E;" width="100" height="50.4"/>
<g>
</g>
<g>
</g>
<g>
</g>
<g>
</g>
<g>
</g>
<g>
</g>
<g>
</g>
<g>
</g>
<g>
</g>
<g>
</g>
<g>
</g>
<g>
</g>
<g>
</g>
<g>
</g>
<g>
</g>
</svg>
